<svg xmlns="http://www.w3.org/2000/svg" viewBox="0 0 860 275" font-family="Arial, 'Helvetica Neue', sans-serif"><defs><marker id="arw" markerWidth="9" markerHeight="9" refX="7" refY="4.5" orient="auto"><path d="M0 1 L8 4.5 L0 8 z" fill="#1a1a1a"/></marker><marker id="arwl" markerWidth="9" markerHeight="9" refX="7" refY="4.5" orient="auto"><path d="M0 1 L8 4.5 L0 8 z" fill="#5a5a5a"/></marker><pattern id="hatch" width="6" height="6" patternTransform="rotate(45)" patternUnits="userSpaceOnUse"><rect width="6" height="6" fill="#e9e9e6"/><line x1="0" y1="0" x2="0" y2="6" stroke="#b0b0b0" stroke-width="2"/></pattern></defs><text x="20" y="24" font-size="10.5" font-weight="600" fill="#5a5a5a" text-anchor="start" letter-spacing="1.3">DOES 30B FIT ONE 48 GB L40S?  ONLY QUANTIZED</text><line x1="130" y1="210" x2="710" y2="210" stroke="#1a1a1a" stroke-width="1"/><line x1="130.0" y1="210" x2="130.0" y2="215" stroke="#1a1a1a" stroke-width="1"/><text x="130.0" y="228" font-size="10" fill="#5a5a5a" text-anchor="middle">0</text><line x1="320.0" y1="210" x2="320.0" y2="215" stroke="#1a1a1a" stroke-width="1"/><text x="320.0" y="228" font-size="10" fill="#5a5a5a" text-anchor="middle">24</text><line x1="510.0" y1="210" x2="510.0" y2="215" stroke="#1a1a1a" stroke-width="1"/><text x="510.0" y="228" font-size="10" fill="#5a5a5a" text-anchor="middle">48</text><line x1="700.0" y1="210" x2="700.0" y2="215" stroke="#1a1a1a" stroke-width="1"/><text x="700.0" y="228" font-size="10" fill="#5a5a5a" text-anchor="middle">72</text><text x="710" y="228" font-size="10" fill="#5a5a5a" text-anchor="middle">GB</text><line x1="510.0" y1="46" x2="510.0" y2="210" stroke="#1a1a1a" stroke-width="1.25" stroke-dasharray="4 3"/><text x="516.0" y="56" font-size="10.5" font-weight="600" fill="#1a1a1a" text-anchor="start">48 GB — one L40S</text><text x="20" y="88" font-size="12.5" font-weight="700" fill="#1a1a1a" text-anchor="start">BF16</text><rect x="130" y="66" width="475.0" height="34" rx="2" fill="#262626" stroke="#1a1a1a" stroke-width="1"/><rect x="605.0" y="66" width="31.666666666666668" height="34" rx="2" fill="#e6e6e3" stroke="#bfbfbf" stroke-width="1"/><text x="650.6666666666667" y="88" font-size="17" font-weight="700" fill="#1a1a1a" text-anchor="start">✗</text><text x="668.6666666666667" y="88" font-size="10.5" fill="#5a5a5a" text-anchor="start">weights alone ~60 GB</text><text x="20" y="136" font-size="12.5" font-weight="700" fill="#1a1a1a" text-anchor="start">FP8</text><rect x="130" y="114" width="269.1666666666667" height="34" rx="2" fill="#262626" stroke="#1a1a1a" stroke-width="1"/><rect x="399.1666666666667" y="114" width="79.16666666666667" height="34" rx="2" fill="#e6e6e3" stroke="#bfbfbf" stroke-width="1"/><text x="492.33333333333337" y="136" font-size="17" font-weight="700" fill="#1a1a1a" text-anchor="start">✓</text><text x="510.33333333333337" y="136" font-size="10.5" fill="#5a5a5a" text-anchor="start">fits — ~10 GB left for cache</text><text x="20" y="184" font-size="12.5" font-weight="700" fill="#1a1a1a" text-anchor="start">NVFP4</text><rect x="130" y="162" width="126.66666666666667" height="34" rx="2" fill="#262626" stroke="#1a1a1a" stroke-width="1"/><rect x="256.6666666666667" y="162" width="110.83333333333334" height="34" rx="2" fill="#e6e6e3" stroke="#bfbfbf" stroke-width="1"/><text x="381.5" y="184" font-size="17" font-weight="700" fill="#1a1a1a" text-anchor="start">✓</text><text x="399.5" y="184" font-size="10.5" fill="#5a5a5a" text-anchor="start">fits comfortably — ~30 GB free</text><rect x="130" y="240" width="14" height="14" rx="2" fill="#262626" stroke="#1a1a1a" stroke-width="1.25"/><text x="150" y="252" font-size="10.5" fill="#5a5a5a" text-anchor="start">weights</text><rect x="220" y="240" width="14" height="14" rx="2" fill="#e6e6e3" stroke="#bfbfbf" stroke-width="1"/><text x="242" y="252" font-size="10.5" fill="#5a5a5a" text-anchor="start">KV cache (8k ctx)</text></svg>